#!OML:ASF F:\VICON\USERDATA\INSTALL\rory3\rory3.ASF
:FULLY-SPECIFIED
:DEGREES
424
root -0.118261 16.9084 17.1668 -157.799 -31.4435 -176.83
lowerback -12.7843 1.14922 3.02981
upperback -5.33226 0.582123 2.24045
thorax 1.59006 0.0480417 0.698463
lowerneck -11.5776 2.46345 -1.56406
upperneck 45.3179 -2.85542 2.39418
head 19.5281 -2.80226 0.323593
rclavicle 2.80286e-014 2.8625e-014
rhumerus -61.6233 29.1173 -107.179
rradius 33.1292
rwrist -30.5951
rhand 14.52 2.63828
rfingers 7.12502
rthumb 39.3997 -22.7661
lclavicle 2.80286e-014 2.8625e-014
lhumerus -59.2748 -20.2594 102.573
lradius 35.7167
lwrist 12.3827
lhand 8.78097 20.7096
lfingers 7.12502
lthumb 33.9692 47.5002
rfemur -33.2284 1.64108 35.5275
rtibia 29.2012
rfoot -39.8303 -30.966
rtoes 36.8047
lfemur -18.02 24.9433 -22.6923
ltibia 49.5546
lfoot 23.5532 12.1193
ltoes -12.474
425
root -0.123311 16.9084 17.1621 -157.834 -31.3103 -176.949
lowerback -12.7155 1.16712 2.9823
upperback -5.34038 0.620964 2.16229
thorax 1.54516 0.0684394 0.648431
lowerneck -11.4245 2.47086 -1.4004
upperneck 45.2456 -2.83309 2.27553
head 19.4289 -2.78211 0.241861
rclavicle 3.12092e-014 9.14409e-015
rhumerus -62.3995 29.7512 -108.057
rradius 33.7743
rwrist -31.322
rhand 14.6691 2.78211
rfingers 7.12502
rthumb 39.5401 -22.581
lclavicle 3.12092e-014 9.14409e-015
lhumerus -59.7741 -20.759 103.072
lradius 36.0321
lwrist 12.896
lhand 9.56994 20.5364
lfingers 7.12502
lthumb 34.7183 47.1578
rfemur -33.0751 1.53745 35.4264
rtibia 29.2106
rfoot -39.8646 -30.7706
rtoes 36.7993
lfemur -18.1355 25.5001 -22.763
ltibia 49.7681
lfoot 24.4041 10.7444
ltoes -15.8743
426
root -0.130985 16.9097 17.1551 -157.814 -31.2278 -177.146
lowerback -12.7112 1.16169 2.91326
upperback -5.32559 0.631146 2.04949
thorax 1.55896 0.0763611 0.571271
lowerneck -11.4192 2.49112 -1.23555
upperneck 45.285 -2.81923 2.16579
head 19.4495 -2.76624 0.158383
rclavicle -1.26924e-013 -4.45278e-014
rhumerus -62.9169 30.2252 -108.688
rradius 34.2378
rwrist -31.6449
rhand 15.1984 2.9386
rfingers 7.12502
rthumb 40.0383 -22.2759
lclavicle -1.26924e-013 -4.45278e-014
lhumerus -60.2901 -21.2538 103.499
lradius 36.5696
lwrist 13.3763
lhand 10.2917 20.3376
lfingers 7.12502
lthumb 35.403 46.7985
rfemur -32.9396 1.33042 35.2705
rtibia 29.2065
rfoot -39.7572 -30.6684
rtoes 36.5875
lfemur -18.2221 25.9893 -22.9093
ltibia 49.9468
lfoot 25.2553 9.02416
ltoes -20.1436
427
root -0.134124 16.9073 17.1484 -157.879 -31.077 -177.143
lowerback -12.7098 1.22898 3.03733
upperback -5.31986 0.712257 1.92365
thorax 1.56817 0.115601 0.38191
lowerneck -11.3989 2.50567 -1.10522
upperneck 45.3004 -2.84697 2.16229
head 19.4546 -2.75822 0.126519
rclavicle 8.05078e-015 2.46493e-014
rhumerus -63.5294 30.792 -109.595
rradius 34.7255
rwrist -32.2554
rhand 16.2766 2.39254
rfingers 7.12502
rthumb 41.0519 -22.5073
lclavicle 8.05078e-015 2.46493e-014
lhumerus -60.7993 -21.7279 103.791
lradius 37.0827
lwrist 13.7982
lhand 11.0161 19.9654
lfingers 7.12502
lthumb 36.0894 46.2599
rfemur -32.8533 1.47547 35.1863
rtibia 29.2348
rfoot -39.9575 -30.5066
rtoes 36.5424
lfemur -18.3138 26.4756 -22.8502
ltibia 50.1082
lfoot 25.2639 9.71212
ltoes -17.8848
428
root -0.134577 16.9067 17.1437 -157.848 -30.841 -177.181
lowerback -12.6877 1.32648 3.11745
upperback -5.38594 0.835699 1.7727
thorax 1.49249 0.171842 0.196399
lowerneck -11.2982 2.49226 -1.10795
upperneck 45.2669 -2.92286 2.26745
head 19.409 -2.77982 0.165077
rclavicle -4.77083e-014 -3.81667e-014
rhumerus -64.3922 31.392 -110.728
rradius 35.3083
rwrist -32.9501
rhand 17.9921 1.46391
rfingers 7.12502
rthumb 42.6602 -22.901
lclavicle -4.77083e-014 -3.81667e-014
lhumerus -61.34 -22.2147 104.108
lradius 37.4555
lwrist 14.2578
lhand 11.8978 19.9545
lfingers 7.12502
lthumb 36.924 46.0386
rfemur -32.864 1.68641 35.0704
rtibia 29.2722
rfoot -39.8985 -30.5933
rtoes 36.4388
lfemur -18.5251 26.9311 -22.9116
ltibia 50.2746
lfoot 25.0158 11.2807
ltoes -13.7262
429
root -0.137872 16.9081 17.1382 -157.859 -30.7526 -177.222
lowerback -12.606 1.33709 3.15781
upperback -5.4934 0.845784 1.70376
thorax 1.33798 0.169514 0.10184
lowerneck -11.042 2.52462 -0.97828
upperneck 45.2553 -2.93437 2.23157
head 19.3258 -2.78195 0.121084
rclavicle 3.54831e-014 -4.37326e-015
rhumerus -64.7598 31.3228 -110.898
rradius 35.5406
rwrist -32.7399
rhand 18.1993 2.25316
rfingers 7.12502
rthumb 42.8541 -22.0441
lclavicle 3.54831e-014 -4.37326e-015
lhumerus -61.9313 -22.4567 104.398
lradius 37.8747
lwrist 14.5087
lhand 12.8464 20.0934
lfingers 7.12502
lthumb 37.8207 45.9412
rfemur -32.7996 1.66302 35.0341
rtibia 29.2947
rfoot -39.8822 -30.5626
rtoes 36.3886
lfemur -18.7083 27.3039 -22.924
ltibia 50.4589
lfoot 24.9615 12.094
ltoes -11.7254
430
root -0.139103 16.9088 17.1292 -157.864 -30.6563 -177.312
lowerback -12.5392 1.23897 2.9805
upperback -5.70967 0.723425 1.71494
thorax 1.07143 0.0972274 0.194889
lowerneck -10.3191 2.66335 -0.618355
upperneck 45.1991 -2.8106 2.00473
head 19.0685 -2.73927 -0.0318568
rclavicle -1.83876e-014 -4.37326e-015
rhumerus -65.3428 31.3974 -111.193
rradius 35.6986
rwrist -32.7304
rhand 18.8434 2.47932
rfingers 7.12502
rthumb 43.4562 -21.6034
lclavicle -1.83876e-014 -4.37326e-015
lhumerus -62.6779 -22.316 104.651
lradius 38.2998
lwrist 14.8289
lhand 13.7647 20.0403
lfingers 7.12502
lthumb 38.6876 45.6491
rfemur -32.7009 1.79789 34.9234
rtibia 29.3292
rfoot -40.0506 -30.5752
rtoes 36.276
lfemur -18.892 27.7434 -22.9993
ltibia 50.6254
lfoot 25.4947 11.4503
ltoes -14.6022
431
root -0.141615 16.9092 17.1232 -157.945 -30.5869 -177.301
lowerback -12.4884 1.2747 3.02083
upperback -5.86983 0.760779 1.61423
thorax 0.879356 0.104347 0.0714941
lowerneck -9.72169 2.69288 -0.218153
upperneck 45.1422 -2.89334 1.87459
head 18.8599 -2.74971 -0.180541
rclavicle 2.47984e-014 1.55052e-014
rhumerus -65.9361 31.6675 -111.876
rradius 35.8915
rwrist -33.3499
rhand 19.2717 2.51338
rfingers 7.12502
rthumb 43.8561 -21.423
lclavicle 2.47984e-014 1.55052e-014
lhumerus -63.5987 -22.857 105.25
lradius 38.904
lwrist 15.7076
lhand 14.5554 20.2208
lfingers 7.12502
lthumb 39.433 45.6154
rfemur -32.5635 1.81815 34.9315
rtibia 29.3305
rfoot -40.1368 -30.472
rtoes 36.3629
lfemur -19.0077 28.1794 -22.9265
ltibia 50.8033
lfoot 25.7415 11.555
ltoes -15.8861
432
root -0.146059 16.9128 17.1195 -158.026 -30.5441 -177.323
lowerback -12.6491 1.54236 3.25002
upperback -5.4565 1.12094 1.4275
thorax 1.41253 0.308098 -0.19855
lowerneck -10.7783 2.37473 -0.485616
upperneck 45.1656 -3.26021 2.07271
head 19.1936 -2.84965 -0.102409
rclavicle -8.29926e-015 -4.45278e-014
rhumerus -65.1924 31.8876 -111.585
rradius 36.0875
rwrist -33.9566
rhand 19.4257 2.77653
rfingers 7.12502
rthumb 43.9997 -21.1065
lclavicle -8.29926e-015 -4.45278e-014
lhumerus -63.5069 -24.4026 105.975
lradius 39.4766
lwrist 16.8523
lhand 15.1228 20.578
lfingers 7.12502
lthumb 39.9673 45.8139
rfemur -32.4079 1.58278 34.9786
rtibia 29.2867
rfoot -39.8392 -30.3588
rtoes 36.2648
lfemur -19.053 28.5535 -22.8325
ltibia 50.9561
lfoot 25.4657 12.6846
ltoes -13.6877
